<svg width="117" height="19" viewBox="0 0 117 19" fill="none" xmlns="http://www.w3.org/2000/svg">
<path d="M23.52 1.32L18.576 18H15.48L11.976 5.376L8.256 18L5.184 18.024L0.456 1.32H3.36L6.816 14.904L10.56 1.32H13.632L17.112 14.832L20.592 1.32H23.52ZM38.0466 11.064C38.0466 11.56 38.0146 12.008 37.9506 12.408H27.8466C27.9266 13.464 28.3186 14.312 29.0226 14.952C29.7266 15.592 30.5906 15.912 31.6146 15.912C33.0866 15.912 34.1266 15.296 34.7346 14.064H37.6866C37.2866 15.28 36.5586 16.28 35.5026 17.064C34.4626 17.832 33.1666 18.216 31.6146 18.216C30.3506 18.216 29.2146 17.936 28.2066 17.376C27.2146 16.8 26.4306 16 25.8546 14.976C25.2946 13.936 25.0146 12.736 25.0146 11.376C25.0146 10.016 25.2866 8.824 25.8306 7.8C26.3906 6.76 27.1666 5.96 28.1586 5.4C29.1666 4.84 30.3186 4.56 31.6146 4.56C32.8626 4.56 33.9746 4.832 34.9506 5.376C35.9266 5.92 36.6866 6.688 37.2306 7.68C37.7746 8.656 38.0466 9.784 38.0466 11.064ZM35.1906 10.2C35.1746 9.192 34.8146 8.384 34.1106 7.776C33.4066 7.168 32.5346 6.864 31.4946 6.864C30.5506 6.864 29.7426 7.168 29.0706 7.776C28.3986 8.368 27.9986 9.176 27.8706 10.2H35.1906ZM43.6251 6.744C44.0891 6.104 44.7211 5.584 45.5211 5.184C46.3371 4.768 47.2411 4.56 48.2331 4.56C49.4011 4.56 50.4571 4.84 51.4011 5.4C52.3451 5.96 53.0891 6.76 53.6331 7.8C54.1771 8.824 54.4491 10 54.4491 11.328C54.4491 12.656 54.1771 13.848 53.6331 14.904C53.0891 15.944 52.3371 16.76 51.3771 17.352C50.4331 17.928 49.3851 18.216 48.2331 18.216C47.2091 18.216 46.2971 18.016 45.4971 17.616C44.7131 17.216 44.0891 16.704 43.6251 16.08V18H40.8891V0.24H43.6251V6.744ZM51.6651 11.328C51.6651 10.416 51.4731 9.632 51.0891 8.976C50.7211 8.304 50.2251 7.8 49.6011 7.464C48.9931 7.112 48.3371 6.936 47.6331 6.936C46.9451 6.936 46.2891 7.112 45.6651 7.464C45.0571 7.816 44.5611 8.328 44.1771 9C43.8091 9.672 43.6251 10.464 43.6251 11.376C43.6251 12.288 43.8091 13.088 44.1771 13.776C44.5611 14.448 45.0571 14.96 45.6651 15.312C46.2891 15.664 46.9451 15.84 47.6331 15.84C48.3371 15.84 48.9931 15.664 49.6011 15.312C50.2251 14.944 50.7211 14.416 51.0891 13.728C51.4731 13.04 51.6651 12.24 51.6651 11.328Z" fill="black"/>
<path d="M67.3127 7.872V11.28H56.7527V7.872H67.3127ZM77.3766 1.152C79.1526 1.152 80.7046 1.504 82.0326 2.208C83.3606 2.912 84.3846 3.904 85.1046 5.184C85.8406 6.448 86.2086 7.912 86.2086 9.576C86.2086 11.224 85.8406 12.688 85.1046 13.968C84.3846 15.248 83.3526 16.24 82.0086 16.944C80.6806 17.648 79.1366 18 77.3766 18H71.0646V1.152H77.3766ZM77.1126 14.448C78.6646 14.448 79.8726 14.024 80.7366 13.176C81.6006 12.328 82.0326 11.128 82.0326 9.576C82.0326 8.024 81.6006 6.816 80.7366 5.952C79.8726 5.088 78.6646 4.656 77.1126 4.656H75.1686V14.448H77.1126ZM101.276 11.088C101.276 11.472 101.252 11.872 101.204 12.288H91.9161C91.9801 13.12 92.2441 13.76 92.7081 14.208C93.1881 14.64 93.7721 14.856 94.4601 14.856C95.4841 14.856 96.1961 14.424 96.5961 13.56H100.964C100.74 14.44 100.332 15.232 99.7401 15.936C99.1641 16.64 98.4361 17.192 97.5561 17.592C96.6761 17.992 95.6921 18.192 94.6041 18.192C93.2921 18.192 92.1241 17.912 91.1001 17.352C90.0761 16.792 89.2761 15.992 88.7001 14.952C88.1241 13.912 87.8361 12.696 87.8361 11.304C87.8361 9.912 88.1161 8.696 88.6761 7.656C89.2521 6.616 90.0521 5.816 91.0761 5.256C92.1001 4.696 93.2761 4.416 94.6041 4.416C95.9001 4.416 97.0521 4.688 98.0601 5.232C99.0681 5.776 99.8521 6.552 100.412 7.56C100.988 8.568 101.276 9.744 101.276 11.088ZM97.0761 10.008C97.0761 9.304 96.8361 8.744 96.3561 8.328C95.8761 7.912 95.2761 7.704 94.5561 7.704C93.8681 7.704 93.2841 7.904 92.8041 8.304C92.3401 8.704 92.0521 9.272 91.9401 10.008H97.0761ZM109.615 14.16L112.519 4.608H116.887L112.135 18H107.071L102.319 4.608H106.711L109.615 14.16Z" fill="#F38C8C"/>
</svg>
